<svg width="588" height="429" viewBox="0 0 588 429" fill="none" xmlns="http://www.w3.org/2000/svg">
<path d="M244.506 188.331C243.025 187.605 234.051 190.364 234.719 188.883C235.387 187.402 244.186 186.937 243.838 185.514C243.518 184.12 242.56 176.308 243.17 174.943C243.17 174.943 236.955 170.703 235.445 168.583C233.935 166.463 232.308 167.218 231.815 168.351C231.292 169.483 227.197 186.85 226.761 184.904C226.297 182.959 231.466 167.479 230.421 166.986C229.375 166.463 223.915 162.194 222.231 164.691C220.546 167.218 219.966 190.219 218.049 190.393C216.132 190.567 220.75 163.675 220.75 163.675C220.75 163.675 214.361 164.053 212.066 166.986C209.772 169.89 212.183 196.898 210.208 196.753C208.233 196.608 209.191 168.351 209.191 168.351C209.191 168.351 201.263 172.155 200.769 176.076C200.276 179.996 205.793 197.712 204.051 198.583C202.308 199.483 200.479 181.187 200.479 181.187C200.479 181.187 193.567 184.382 193.16 189.725C192.754 195.069 199.462 201.777 198.678 203.491C197.894 205.204 191.912 198.002 190.924 193.646C189.908 189.29 182.328 211.681 188.746 214.788C190.692 215.717 192.144 216.066 193.247 216.066C192.463 218.186 192.144 220.103 191.795 222.048C190.314 231.951 189.385 248.505 188.862 267.063C187.642 265.872 186.829 265.001 186.829 265.001C185.145 265.669 184.128 267.876 183.664 270.693C182.822 269.618 182.241 268.979 182.241 268.979C182.241 268.979 181.573 271.332 180.527 274.526C180.208 272.087 179.888 269.676 179.569 267.353C179.569 267.063 179.569 266.743 179.54 266.453C179.714 265.378 179.714 264.478 179.511 263.839C179.279 249.173 179.017 232.329 178.756 213.016C178.756 212.871 178.698 212.755 178.611 212.668C178.727 208.922 179.947 175.96 184.39 167.102C189.095 157.692 192.144 146.715 192.144 146.715C192.144 146.715 188.107 153.22 184.535 156.908C180.963 160.597 177.856 161.294 177.856 164.575C177.856 167.857 182.56 178.515 179.54 176.947C176.491 175.379 177.246 168.961 176.2 168.961C175.126 168.961 170.74 183.685 170.74 184.469C170.74 185.253 178.349 191.352 176.374 193.413C174.4 195.446 171.205 185.572 169.985 186.821C168.766 188.07 168.475 198.902 168.475 201.719C168.475 204.536 174.341 203.055 171.67 205.785C169.027 208.515 168.475 219.464 168.475 224.517C162.144 209.59 156.481 205.756 147.188 200.122C149.221 200.122 151.776 199.57 153.925 197.363C158.136 193.036 160.053 177.034 150.353 172.62C150.789 170.267 150.469 167.828 148.785 165.621C142.628 157.634 140.45 157.867 140.45 160.335C140.45 162.804 139.085 186.56 137.372 184.788C135.658 183.017 139.753 159.987 137.372 157.518C134.99 155.05 128.137 153.162 128.137 153.888C128.137 154.585 130.082 181.855 128.137 179.88C126.191 177.876 129.269 154.004 123.809 153.191C118.35 152.378 115.707 153.772 114.807 154.73C113.906 155.66 120.063 176.569 118.669 176.569C117.304 176.569 112.745 156.153 109.782 156.153C106.82 156.153 103.161 157.925 103.161 159.929C103.161 161.933 108.969 170.384 107.488 170.384C106.007 170.384 102.115 160.974 101.099 162.049C100.083 163.094 94.0419 168.031 92.6479 168.031C92.6479 168.031 91.6315 176.976 90.4698 179.677C89.3372 182.378 90.586 183.801 91.7186 183.801C92.8512 183.801 108.766 179.619 107.343 181.1C105.92 182.581 91.1377 184.614 91.1377 186.037C91.1377 187.46 89.7728 195.563 92.5027 196.143C95.2326 196.724 114.4 185.921 115.3 187.925C116.201 189.928 92.2704 198.263 92.2704 198.263C92.2704 198.263 95.1164 205.088 98.4272 206.134C101.738 207.179 122.996 191.09 123.635 193.326C124.303 195.563 100.692 208.602 100.692 208.602C100.692 208.602 106.965 215.427 110.392 214.004C113.819 212.581 126.191 197.712 127.614 199.193C129.037 200.674 114.719 211.768 114.719 211.768C114.719 211.768 120.092 217.75 124.652 215.543C129.211 213.307 132.057 202.62 133.771 202.62C135.484 202.62 131.941 212.784 128.746 216.037C125.581 219.318 146.984 216.472 146.984 207.905C146.984 204.275 146.404 202.242 145.707 201.109C145.765 201.138 145.794 201.168 145.823 201.197C149.134 203.229 153.548 205.582 157.178 209.473C166.413 219.028 172.367 237.905 176.2 259.773C174.893 258.844 173.848 258.931 173.848 260.093C173.848 262.126 169.056 283.384 166.704 280.944C164.351 278.505 173.383 259.163 170.189 255.853C168.301 253.907 163.887 251.351 160.431 250.073C158.92 248.534 154.39 246.908 155.784 242.464C157.178 237.992 149.831 234.013 149.831 234.013C149.831 234.013 145.271 240.838 141.176 240.838C137.081 240.838 146.433 236.366 146.433 233.781C146.433 231.196 132.289 226.492 132.289 226.492C132.289 226.492 136.268 235.059 136.239 238.573C134.555 237.353 132.754 236.191 131.215 235.349C129.879 231.487 129.443 226.724 127.062 226.724C124.535 226.724 123.432 228.728 121.893 230.383C120.005 229.251 117.624 228.089 115.329 227.247C114.226 224.372 113.383 221.322 112.687 221.322C111.322 221.322 107.895 224.372 101.273 223.21C94.6518 222.048 95.4068 223.036 90.0051 228.612C84.6034 234.188 81.2056 239.676 81.2056 239.676C81.2056 239.676 82.2511 239.125 83.9936 238.457C91.98 235.988 108.911 236.772 115.155 239.444C118.901 241.041 127.585 245.281 135.019 248.97C132.289 249.289 125.697 251.061 123.606 248.912C123.606 248.912 119.105 259.831 120.934 264.536C122.764 269.241 142.977 271.274 139.027 272.377C135.077 273.481 119.569 270.083 119.569 270.083C119.569 270.083 118.204 281.322 122.444 283.5C126.714 285.707 149.046 282.396 146.926 284.604C144.806 286.811 124.361 289.076 121.98 286.636C121.98 286.636 121.515 300.112 128.979 301.535C136.413 302.958 156.83 291.515 155.058 294.652C153.315 297.788 134.439 306.878 128.659 303.422C128.659 303.422 133.829 316.288 138.533 316.288C143.238 316.288 154.884 299.734 157.236 302.174C159.588 304.613 147.043 316.433 140.073 317.856C140.073 317.856 142.802 325.233 151.776 323.025C160.75 320.818 159.24 306.414 161.97 307.663C164.7 308.911 162.115 324.739 152.996 324.739C152.996 324.739 167.894 328.34 171.379 320.034C172.367 317.711 172.831 315.794 173.035 314.226C175.387 325.581 176.026 341.002 175.852 353.577H160.982V357.498H163.393L165.048 406.055H204.545L206.2 357.498H208.494V353.577H193.712C195.977 324.942 201.031 301.157 204.951 286.027C205.445 287.421 206.258 289.221 207.449 290.47C209.685 292.764 213.983 284.923 213.983 281.002C213.983 277.082 209.365 280.857 209.365 278.65C209.365 276.443 210.033 277.547 215.958 277.547C221.882 277.547 224.002 265.001 224.002 265.001C224.002 265.001 215.029 266.104 215.029 264.362C215.029 262.619 222.173 263.578 226.732 262.329C231.292 261.08 233.876 250.886 233.876 250.886C233.876 250.886 220.808 254.807 220.808 253.094C220.808 251.38 230.914 249.725 232.831 247.779C234.719 245.833 235.416 236.976 235.416 236.976C235.416 236.976 226.761 245.281 225.396 245.281C224.031 245.281 234.603 236.104 233.615 235.088C232.628 234.071 232.25 229.744 232.25 229.744C230.362 231.69 227.226 229.134 225.251 231.167C223.276 233.2 219.704 248.795 218.252 250.277C216.8 251.758 222.289 237.818 219.762 235.233C217.265 232.648 210.469 239.212 209.133 240.577C207.797 241.971 212.328 257.101 210.498 258.989C208.669 260.877 209.046 245.659 207.594 244.178C206.142 242.668 202.279 246.53 201.147 251.003C200.014 255.475 209.917 263.113 207.071 266.046C204.225 268.979 201.611 257.827 199.085 255.243C197.226 253.326 193.393 257.072 191.505 260.383C191.941 246.85 192.609 234.798 193.625 226.201C195.658 231.835 206.142 238.602 213.518 230.877C215.087 232.155 217.032 232.736 219.443 231.835C228.213 228.583 229.027 226.346 227.168 225.446C225.309 224.546 208.204 214.614 210.295 213.539C212.386 212.465 227.749 224.894 230.682 223.384C233.615 221.874 238.117 215.746 237.594 215.485C237.071 215.224 215.813 207.324 218.165 206.105C220.546 204.885 236.984 216.589 240.062 211.419C243.17 206.25 243.286 203.142 242.995 201.894C242.705 200.645 224.322 199.251 224.932 197.886C225.542 196.521 242.879 199.338 244.215 196.376C245.667 193.326 246.016 189.057 244.506 188.331ZM149.221 176.163C149.221 176.627 149.25 177.121 149.337 177.673C149.918 180.955 144.719 186.444 143.761 185.427C143.18 184.875 147.101 180.926 149.221 176.163ZM186.684 289.134C187.091 289.657 187.526 290.034 187.991 290.18C188.107 290.238 188.281 290.238 188.398 290.267C188.398 290.877 188.369 291.457 188.369 292.067C186.597 294.478 184.535 297.266 182.938 297.469C182.851 296.365 182.734 295.262 182.647 294.158C183.693 292.851 185.261 291.167 186.684 289.134ZM180.353 310.915C180.818 310.886 181.311 310.828 181.805 310.77C182.764 326.568 183.112 341.525 183.286 353.548H181.195C181.108 346.171 180.789 333.306 180.353 310.915ZM185.958 353.519C185.639 341.147 185 325.842 183.925 310.218C184.39 310.044 184.854 309.87 185.348 309.637C186.481 309.086 187.439 308.214 188.252 307.169C188.136 325.145 188.223 341.931 188.339 353.519H185.958ZM172.047 234.042C171.466 232.329 170.886 230.732 170.305 229.222C171.583 230.035 173.296 229.715 174.835 228.118C177.507 225.359 176.403 215.369 178.175 213.394C178.001 217.547 178.088 236.25 178.291 259.076C177.594 255.127 176.868 251.438 176.084 248.098C175.068 243.539 172.512 235.582 172.047 234.042ZM178.146 271.767C178.233 272.435 178.32 273.103 178.407 273.8C178.436 276.065 178.436 278.36 178.465 280.683C176.345 286.433 173.848 292.009 172.251 291.312C170.072 290.325 175.358 279.754 178.146 271.767ZM155.784 252.832C156.22 259.018 158.282 272.174 154.332 272.174C150.76 272.174 153.083 260.325 153.083 253.674C153.954 253.413 154.884 253.123 155.784 252.832ZM139.869 251.293C141.496 254.981 144.574 262.416 142.135 261.835C139.434 261.167 138.272 252.484 136.704 249.725C137.807 250.277 138.882 250.799 139.869 251.293ZM173.325 309.202C174.458 309.812 176.403 310.654 178.785 310.857C178.988 328.514 179.162 344.197 179.279 353.519H177.71C177.856 339.521 176.955 321.806 173.325 309.202ZM191.04 353.519C190.924 340.712 190.779 321.748 190.866 301.825C192.231 297.382 192.434 292.445 192.173 289.976C196.355 288.815 201.553 285.678 203.557 284.4C199.579 299.589 194.293 323.984 191.97 353.519H191.04ZM199.404 273.974C198.243 275.165 194.467 272.203 191.331 269.386C191.36 267.992 191.389 266.598 191.447 265.233C194.032 268.311 201.089 272.232 199.404 273.974ZM211.515 228.408C211.166 228.234 210.788 228.089 210.324 227.973C207.594 227.363 205.881 220.219 207.071 219.609C207.768 219.26 208.901 224.604 211.515 228.408Z" fill="#C2D8FF"/>
<path d="M173.47 274.41C175.358 275.165 176.461 275.746 176.461 275.746C176.461 275.746 172.831 269.88 167.023 263.868C161.215 257.885 161.999 256.782 154.913 258.06C147.798 259.308 144.138 256.027 142.657 256.027C141.902 256.027 141.002 259.308 139.811 262.387C137.372 263.316 134.787 264.536 132.754 265.756C131.099 264.013 129.908 261.835 127.207 261.835C124.652 261.835 124.187 266.946 122.735 271.099C121.079 272.029 119.134 273.277 117.333 274.584C117.304 270.809 121.573 261.603 121.573 261.603C121.573 261.603 106.384 266.656 106.384 269.444C106.384 272.232 116.433 277.024 112.019 277.024C107.604 277.024 102.696 269.705 102.696 269.705C102.696 269.705 94.7969 274.003 96.3071 278.795C97.8172 283.587 92.9383 285.33 91.312 286.985C87.5947 288.35 82.8609 291.08 80.828 293.2C77.4011 296.743 87.13 317.537 84.5744 320.15C82.0478 322.764 76.9074 299.937 76.9074 297.759C76.9074 296.511 75.8038 296.394 74.3808 297.411C78.5047 273.945 84.8648 253.674 94.797 243.394C98.6885 239.212 103.422 236.685 106.994 234.478C107.052 234.449 107.081 234.42 107.14 234.391C106.414 235.611 105.775 237.789 105.775 241.68C105.775 250.886 128.804 253.936 125.378 250.422C121.951 246.908 118.146 235.988 119.976 235.988C121.805 235.988 124.884 247.489 129.763 249.87C134.671 252.28 140.421 245.833 140.421 245.833C140.421 245.833 125.058 233.897 126.568 232.329C128.107 230.761 141.379 246.734 145.068 248.244C148.756 249.754 155.494 242.435 155.494 242.435C155.494 242.435 130.14 228.408 130.837 226.027C131.563 223.617 154.39 240.925 157.933 239.793C161.476 238.66 164.554 231.342 164.554 231.342C164.554 231.342 138.824 222.368 139.811 220.219C140.799 218.07 161.36 229.686 164.322 229.047C167.255 228.408 165.803 219.696 165.803 218.186C165.803 216.676 149.947 214.468 148.407 212.871C146.868 211.303 163.974 215.775 165.193 215.775C166.413 215.775 167.778 214.265 166.529 211.361C165.31 208.457 164.206 198.844 164.206 198.844C162.725 198.844 156.249 193.53 155.145 192.397C154.042 191.264 149.889 201.371 148.291 201.371C146.694 201.371 152.938 192.281 152.938 190.132C152.938 187.983 149.017 186.095 145.823 186.095C142.628 186.095 137.749 208.021 136.268 208.021C134.787 208.021 141.408 185.572 140.421 184.585C139.434 183.568 136.617 182.058 130.75 182.929C124.884 183.801 128.166 209.444 126.104 211.593C124.013 213.742 126.104 184.44 126.104 183.685C126.104 182.929 118.756 184.933 116.171 187.605C113.587 190.248 118.001 215.02 116.171 216.908C114.342 218.796 112.861 193.297 112.861 190.625C112.861 187.983 110.537 187.721 103.916 196.318C102.086 198.699 101.767 201.284 102.232 203.81C91.8057 208.544 93.8967 225.737 98.3981 230.412C100.692 232.765 103.451 233.374 105.629 233.374C95.6682 239.444 89.5404 243.568 82.7738 259.599C82.7738 254.168 82.193 242.406 79.3469 239.473C76.5008 236.54 82.7738 238.137 82.7738 235.088C82.7738 232.068 82.4543 220.422 81.1475 219.086C79.8406 217.75 76.4137 228.35 74.2937 226.172C72.1737 223.994 80.3343 217.402 80.3343 216.559C80.3343 215.717 75.6005 199.89 74.4679 199.89C73.3353 199.89 74.1485 206.802 70.8668 208.486C67.6141 210.17 72.6674 198.728 72.6674 195.185C72.6674 191.642 69.3276 190.887 65.4941 186.937C61.6606 182.988 57.3335 175.989 57.3335 175.989C57.3335 175.989 60.5861 187.779 65.6684 197.886C70.4312 207.411 71.738 242.813 71.8542 246.85C71.7671 246.966 71.709 247.082 71.709 247.227C71.4186 267.992 71.1572 286.056 70.8958 301.825C70.6635 302.522 70.6635 303.481 70.8378 304.613C70.8378 304.933 70.8377 305.252 70.8087 305.601C70.4602 308.098 70.1117 310.683 69.7632 313.297C68.6596 309.87 67.9336 307.343 67.9336 307.343C67.9336 307.343 67.2947 308.04 66.3944 309.173C65.9007 306.123 64.8262 303.771 62.9966 303.045C62.9966 303.045 62.0963 303.974 60.8185 305.252C60.2376 285.33 59.2793 267.527 57.6529 256.898C57.2754 254.807 56.9559 252.745 56.0847 250.48C57.2754 250.451 58.8436 250.102 60.9056 249.086C67.7884 245.746 59.6568 221.7 58.5532 226.375C57.4787 231.051 51.0315 238.805 50.2183 236.947C49.3761 235.117 56.5784 227.915 56.1718 222.164C55.7362 216.414 48.3306 212.987 48.3306 212.987C48.3306 212.987 46.3848 232.619 44.4972 231.661C42.6095 230.703 48.5339 211.681 48.0112 207.469C47.4884 203.258 38.9502 199.193 38.9502 199.193C38.9502 199.193 39.9667 229.541 37.8467 229.686C35.7266 229.831 38.3113 200.819 35.8428 197.683C33.3743 194.546 26.5205 194.139 26.5205 194.139C26.5205 194.139 31.4866 223.036 29.4246 222.832C27.3627 222.629 26.7238 197.915 24.9232 195.214C23.1226 192.513 17.2853 197.131 16.1527 197.683C15.0201 198.234 20.567 214.846 20.0733 216.937C19.5796 219.028 15.1943 200.383 14.6425 199.164C14.0908 197.944 12.3483 197.131 10.7219 199.425C9.09563 201.69 2.44513 206.25 2.44513 206.25C3.11309 207.702 2.09664 216.095 1.74814 217.605C1.39964 219.115 10.8381 219.609 11.5641 221.206C12.2902 222.803 2.64843 219.841 1.05115 220.625C-0.546131 221.409 -0.197639 225.998 1.25443 229.163C2.70651 232.329 21.3221 229.309 21.961 230.79C22.6289 232.242 2.85171 233.752 2.5613 235.088C2.24184 236.424 2.38706 239.793 5.72682 245.34C9.06659 250.886 26.7238 238.341 29.2504 239.618C31.806 240.925 8.95042 249.434 8.39863 249.696C7.84684 249.957 12.6677 256.579 15.8332 258.176C18.9697 259.773 35.4943 246.443 37.7305 247.605C39.9667 248.766 21.5835 259.425 19.6086 260.383C17.6338 261.341 18.505 263.752 27.9145 267.237C30.4992 268.195 32.5902 267.585 34.2746 266.22C42.2029 274.555 53.471 267.266 55.6491 261.196C56.7526 270.431 57.4787 283.384 57.9433 297.905C55.9104 294.332 51.7866 290.325 49.8117 292.387C47.1109 295.175 44.2939 307.169 41.2445 304.003C38.1952 300.838 48.8534 292.648 47.6046 287.827C46.3849 283.035 42.2319 278.882 40.6637 280.509C39.0954 282.106 39.502 298.456 37.5562 296.423C35.6105 294.391 40.4604 278.127 39.0374 276.646C37.5853 275.165 30.2959 268.108 27.595 270.896C24.8942 273.684 30.7896 288.669 29.2213 287.072C27.6821 285.475 23.8196 268.718 21.6996 266.54C19.5796 264.362 16.2108 267.092 14.1779 265.001C14.1779 265.001 13.7713 269.647 12.6968 270.751C11.6222 271.854 22.9774 281.699 21.5254 281.699C20.0442 281.699 10.751 272.784 10.751 272.784C10.751 272.784 11.477 282.309 13.539 284.4C15.5719 286.491 26.4334 288.263 26.4334 290.121C26.4334 291.98 12.3773 287.769 12.3773 287.769C12.3773 287.769 15.1653 298.718 20.0443 300.054C24.9523 301.39 32.6192 300.402 32.6192 302.232C32.6192 304.09 22.9774 302.9 22.9774 302.9C22.9774 302.9 25.2717 316.375 31.6318 316.375C37.9919 316.375 38.7179 315.184 38.7179 317.566C38.7179 319.918 33.7518 315.881 33.7518 320.092C33.7518 324.303 38.3694 332.754 40.7799 330.257C42.0577 328.921 42.9289 327.004 43.4517 325.494C46.7914 338.417 50.9153 357.236 53.6742 379.86H55.6491C52.774 356.336 48.4758 336.878 45.0199 323.81C47.169 325.174 52.7449 328.543 57.2463 329.792C56.9559 332.435 57.1592 337.778 58.6403 342.541C58.7275 355.813 58.6694 368.708 58.6113 379.889H61.5154C61.5445 370.363 61.5445 359.531 61.4864 348.291C62.3576 349.395 63.3741 350.353 64.5938 350.934C65.1166 351.196 65.6103 351.399 66.104 351.573C65.436 361.302 64.9133 370.915 64.5358 379.889H67.1785C67.4399 371.205 67.7884 361.825 68.3692 352.154C68.892 352.241 69.4147 352.299 69.9375 352.328C69.7342 363.654 69.5309 372.657 69.3857 379.918H71.3024C71.3895 371.757 71.5057 362.318 71.6219 352.299C74.1775 352.067 76.2685 351.167 77.4882 350.499C75.0488 358.95 73.7709 369.492 73.1611 379.918H74.9616C75.3682 371.379 76.2104 362.899 77.6625 355.842C77.8658 357.527 78.3885 359.589 79.434 362.086C83.1804 371.002 99.2112 367.139 99.2112 367.139C89.4243 367.139 86.6363 350.121 89.5695 348.785C92.5027 347.449 90.8763 362.928 100.518 365.281C110.16 367.633 113.093 359.734 113.093 359.734C105.571 358.224 92.0961 345.503 94.6517 342.89C97.1783 340.276 109.666 358.049 114.748 358.049C119.802 358.049 125.378 344.226 125.378 344.226C119.163 347.943 98.9208 338.156 97.0331 334.787C95.1454 331.418 117.043 343.703 125.058 342.193C133.074 340.683 132.58 326.191 132.58 326.191C130.053 328.805 108.069 326.365 105.804 324.013C103.509 321.66 127.527 325.204 132.115 322.822C136.675 320.47 135.223 308.418 135.223 308.418C135.223 308.418 118.553 312.048 114.313 310.886C110.073 309.695 131.796 307.517 133.742 302.464C135.687 297.411 130.866 285.678 130.866 285.678C128.63 288.001 121.544 286.085 118.611 285.736C126.597 281.787 135.949 277.227 139.956 275.514C146.694 272.609 164.874 271.767 173.47 274.41ZM37.8176 263.229C37.3239 263.345 36.9173 263.519 36.5398 263.694C39.3278 259.57 40.5766 253.849 41.3316 254.226C42.5804 254.865 40.7218 262.561 37.8176 263.229ZM58.2047 307.692C54.865 310.712 50.7701 313.877 49.5504 312.6C47.7498 310.741 55.3006 306.501 58.0886 303.219C58.1466 304.729 58.1757 306.21 58.2047 307.692ZM67.5561 334.323C67.4399 335.513 67.3528 336.704 67.2366 337.895C65.4941 337.662 63.287 334.7 61.3993 332.086C61.3993 331.447 61.3702 330.809 61.3702 330.17C61.5154 330.141 61.6897 330.112 61.8059 330.082C62.2996 329.908 62.7642 329.502 63.1998 328.95C64.739 331.099 66.4234 332.9 67.5561 334.323ZM103.335 209.183C103.451 208.602 103.451 208.05 103.451 207.557C105.717 212.668 109.928 216.879 109.318 217.518C108.301 218.592 102.725 212.726 103.335 209.183ZM72.2317 296.627C72.435 272.087 72.5221 251.99 72.3479 247.547C74.2356 249.667 73.0449 260.412 75.92 263.374C77.5754 265.088 79.434 265.436 80.799 264.565C80.1891 266.191 79.5792 267.905 78.9403 269.734C78.4466 271.361 75.6877 279.928 74.6131 284.865C73.7709 288.437 72.9868 292.416 72.2317 296.627ZM78.708 331.244C76.9945 331.999 74.2937 325.988 72.0284 319.831C72.0575 317.362 72.0865 314.894 72.0865 312.454C72.1737 311.728 72.2898 311.002 72.3769 310.276C75.3682 318.843 81.0603 330.199 78.708 331.244ZM97.9915 310.683C93.7515 310.683 95.9586 296.54 96.4233 289.889C97.3816 290.209 98.369 290.528 99.3564 290.818C99.2984 297.963 101.825 310.683 97.9915 310.683ZM116.897 286.578C115.213 289.541 113.935 298.863 111.06 299.589C108.475 300.228 111.757 292.212 113.5 288.263C114.574 287.711 115.707 287.159 116.897 286.578Z" fill="#99BEFF"/>
<path d="M87.7399 409.598H43.684C32.9387 406.345 25.8525 400.769 25.8525 394.438C25.8525 388.485 32.1255 383.199 41.7963 379.889H89.6276C99.2984 383.199 105.571 388.485 105.571 394.438C105.571 400.769 98.4852 406.345 87.7399 409.598Z" fill="#99BEFF"/>
<path d="M587.572 415.174C587.572 422.579 459.267 428.591 301.02 428.591C142.744 428.591 14.4683 422.579 14.4683 415.174C14.4683 407.768 142.773 401.757 301.02 401.757C459.267 401.757 587.572 407.768 587.572 415.174Z" fill="#54688B"/>
<path d="M122.648 76.8411L126.684 73.9369C126.684 73.9369 116.142 55.4085 117.246 39.4066C117.827 30.9846 104.903 18.5549 101.476 20.4716C101.273 20.3845 90.0051 20.733 89.0177 48.2933L86.6072 80.5584L98.7756 92.0878C98.7756 92.0878 106.443 78.0027 116.2 84.1885C125.958 90.3744 128.95 90.2001 128.95 90.2001C128.95 90.2001 122.648 79.8033 122.648 76.8411Z" fill="#002B32"/>
<path d="M114.313 74.6049C114.313 74.6049 103.538 68.8547 94.9421 75.0695L95.7553 81.9233L104.642 102.136L113.122 100.103L117.217 78.7578L114.313 74.6049Z" fill="#41001D"/>
<path d="M65.7845 285.62C65.7845 285.62 104.787 269.328 141.031 285.126L124.39 132.136L92.5027 139.832L65.7845 285.62Z" fill="#41001D"/>
<path d="M157.41 408.088C155.406 402.338 154.187 393.712 151.631 382.067C151.341 380.702 150.934 378.756 150.44 376.375C146.491 376.375 143.703 377.13 140.944 378.727C142.047 381.863 143.499 386.191 143.587 387.555C143.79 390.837 142.831 391.157 142.831 391.157C142.861 396.82 144.487 402.918 145.59 404.08C147.013 405.59 148.582 413.083 149.918 413.083C151.254 413.083 162.609 414.419 162.609 414.419C162.899 411.631 159.443 413.838 157.41 408.088Z" fill="#FD5E5A"/>
<path d="M99.2984 404.835C98.7176 402.86 98.1077 394.264 97.643 382.938C94.6808 382.88 91.3701 381.805 88.2336 382.473C88.4659 384.041 89.0177 386.713 89.0177 387.149C89.0177 391.244 87.1591 389.734 86.4621 392.667C85.9974 394.613 87.798 398.359 87.798 398.359C90.4117 398.359 91.5153 408.349 92.7931 411.253C93.5191 412.938 96.8879 413.722 100.721 413.722C103.713 413.722 103.19 412.88 100.983 408.814C100.373 407.652 99.763 406.316 99.2984 404.835Z" fill="#FC7575"/>
<path d="M137.953 284.749C137.575 283.006 127.149 188.534 123.258 153.656L102.203 152.872L90.5859 204.42L118.262 297.759C117.333 306.385 117.682 313.355 120.237 325.145C122.357 334.874 130.983 367.401 136.152 382.27C138.94 380.673 148.553 377.507 151.573 376.375C139.753 298.34 141.902 302.987 137.953 284.749Z" fill="#3A0E22"/>
<path d="M100.605 294.391L118.233 188.418L116.113 152.146H98.8628C98.8628 152.146 81.5831 172.126 77.7206 197.421C73.829 222.716 81.0313 294.826 81.0313 294.826C81.0313 294.826 80.2762 303.887 78.5628 311.641C76.7622 319.773 79.9568 370.653 82.0187 384.07C85.1552 383.403 96.0167 382.851 98.9789 382.909C97.8463 355.9 96.0748 313.442 97.7882 309.056C98.8918 306.181 99.8792 300.112 100.605 294.391Z" fill="#990044"/>
<path d="M123.838 157.402L95.3197 156.763L98.8628 152.175H123.838V157.402Z" fill="#3A011A"/>
<path d="M190.372 115.786C190.024 116.454 188.949 117.848 187.991 118.951C187.033 120.055 191.273 113.433 191.447 112.301C193.131 101.991 188.543 113.172 187.004 116.221C185.958 118.283 181.66 119.764 180.44 119.271C180.44 119.271 151.863 127.257 143.47 126.037C142.715 125.921 141.031 122.32 140.392 120.636C136.733 123.162 133.364 126.124 130.954 130.016C132.319 132.543 134.497 134.75 135.774 135.65C143.732 141.226 169.608 131.207 174.98 128.215C180.353 125.224 186.336 123.685 187.846 122.872C189.327 122.03 194.177 114.101 193.393 112.097C192.579 110.21 190.837 114.914 190.372 115.786Z" fill="#FD5E5A"/>
<path d="M181.921 114.856C181.921 114.856 174.254 120.345 175.474 122.756C176.694 125.166 179.917 122.756 179.917 122.756C179.917 122.756 179.511 120.142 180.702 118.922C181.892 117.673 183.025 114.014 181.921 114.856Z" fill="#FD5E5A"/>
<path d="M142.773 122.727C143.325 121.274 144.109 119.532 142.396 118.254C140.044 116.512 140.131 117.76 140.131 113.898C140.131 110.297 139.23 109.745 136.646 108.874C136.559 108.554 136.471 108.206 136.355 107.886C133.103 95.9794 123.141 77.8865 120.063 76.4635C116.956 75.0405 116.171 84.0724 116.171 84.0724C116.171 84.0724 130.228 133.762 130.924 134.343C130.924 134.343 133.596 138.467 134.351 139.425L143.441 125.34L142.831 122.785C142.802 122.756 142.802 122.727 142.773 122.727Z" fill="#570027"/>
<path d="M89.6566 399.724L89.8018 413.141L88.4078 413.17L86.6653 397.894L89.6566 399.724Z" fill="#1A1722"/>
<path d="M119.25 76.841C119.25 76.841 112.919 71.5845 91.6024 76.3764C90.5569 76.6087 88.9886 102.862 88.9886 102.862C88.9886 102.862 96.1038 143.898 94.0999 154.788C94.0999 154.788 109.114 168.118 126.859 158.825C126.859 158.825 124.652 124.614 126.307 117.005C127.933 109.396 131.186 102.485 126.626 94.5563C122.067 86.6571 119.25 76.841 119.25 76.841Z" fill="#7F71A4"/>
<path d="M128.34 156.85C128.34 156.85 127.904 157.663 127.178 158.448C126.452 159.232 120.382 161.381 120.382 161.381L124.013 159.115C124.013 159.115 128.34 156.211 128.34 156.85Z" fill="#FD5E5A"/>
<path d="M88.7563 389.298C89.918 396.791 94.4775 411.631 97.1783 411.631C100.808 411.631 101.012 411.428 101.012 408.814C103.219 412.88 105.746 414.971 102.754 414.971C98.9208 414.971 92.9673 415.232 92.2122 413.548C90.9344 410.643 90.2374 399.666 87.6237 399.666L88.4368 413.17L87.0429 413.199C87.0429 413.199 84.9809 394.583 85.4456 392.725C86.0264 390.198 88.0012 389.734 88.7563 389.298Z" fill="#332F44"/>
<path d="M158.746 410.673C161.418 413.344 165.774 412.88 165.542 415.087C165.542 415.087 150.847 414.419 149.511 414.419C148.175 414.419 147.013 405.59 145.62 404.08C144.196 402.57 145.097 414.419 145.097 414.419H143.645C143.645 414.419 142.686 402.192 141.321 397.459C140.247 393.683 141.786 392.086 142.861 391.128C147.246 400.159 147.623 412.793 158.746 410.673Z" fill="#332F44"/>
<path d="M94.9421 75.0986C94.9421 75.0986 109.027 223.994 94.129 267.295C85.4456 292.561 76.9364 294.594 71.3314 291.893C67.2656 289.918 64.8261 285.359 64.8552 280.567C65.0004 264.1 66.3073 210.925 76.5298 173.956C88.9305 129.087 82.8899 123.511 82.8899 116.076C82.8899 103.211 84.7486 84.5661 87.5656 77.2476C88.0012 76.2312 94.9421 75.0986 94.9421 75.0986Z" fill="#731B43"/>
<path d="M103.626 73.6755C106.036 73.6175 108.737 74.3145 113.209 74.8372C113.616 74.8953 113.877 74.5468 114.313 74.6049C109.724 69.9002 92.2703 67.4026 91.2539 75.389C84.3711 129.958 101.215 232.184 94.129 267.266C110.363 232.068 106.994 136.405 97.4107 81.6619C96.5975 76.8701 99.0951 73.7627 103.626 73.6755Z" fill="#BF2D70"/>
<path d="M104.206 217.227C105.542 173.549 102.348 120.839 97.4106 81.6619C105.949 120.316 109.201 176.163 104.206 217.227Z" fill="#CC578D"/>
<path d="M114.313 74.6049C124.129 86.4828 128.166 280.596 141.031 285.126C141.031 285.126 140.305 228.408 140.305 214.149C140.305 199.89 134.468 105.621 131.651 97.6928C128.863 89.7645 120.063 76.4345 120.063 76.4345L114.313 74.6049Z" fill="#731B43"/>
<path d="M114.313 74.6049C125.61 87.1798 132.551 238.602 134.351 263.49C121.108 203.578 118.437 86.8023 112.832 73.966C112.716 73.7336 113.877 74.1402 114.313 74.6049Z" fill="#BF2D70"/>
<path d="M111.089 167.305L111.902 166.666C111.902 166.666 115.329 166.695 116.752 165.94C118.175 165.185 119.947 165.214 119.279 165.94C118.64 166.666 115.387 167.45 116.055 169.338C116.694 171.255 111.089 167.305 111.089 167.305Z" fill="#FC7575"/>
<path d="M123.345 168.351C122.735 168.757 121.428 168.931 120.092 169.425C118.756 169.919 126.191 166.405 126.191 165.243C126.191 164.082 119.947 167.625 118.146 168.467C116.084 169.396 112.803 167.77 111.931 166.724C111.931 166.724 86.2007 157.489 79.3759 152.32C78.7661 151.855 77.1688 149.474 77.3721 147.673C72.9868 148.109 68.6596 149.096 64.7391 151.332C64.7971 154.207 64.013 157.751 64.7391 159.174C69.2114 167.973 98.2238 171.255 104.352 171.255C110.45 171.255 116.433 172.823 118.117 172.823C119.802 172.823 127.701 168.205 127.933 166.027C128.166 163.936 124.158 167.799 123.345 168.351Z" fill="#FC7575"/>
<path d="M80.1891 123.627C84.6614 118.254 86.2006 103.908 86.2006 93.8593C86.2006 83.782 84.7195 77.2476 84.7195 77.2476C84.7195 77.2476 74.8164 76.8411 69.2985 88.1672C63.5193 100.074 55.6781 112.301 63.1127 150.548C67.0333 148.312 72.9578 148.051 77.343 147.615C78.3595 138.002 76.4137 128.157 80.1891 123.627Z" fill="#AD004D"/>
<path d="M62.3286 147.847C62.3286 147.847 61.4283 150.897 62.3286 151.884C63.2289 152.872 62.1253 155.166 62.7352 156.444C63.316 157.721 73.0159 154.411 77.6044 153.017C82.193 151.623 79.3469 149.938 78.7951 148.109C78.2433 146.279 78.8822 145.35 77.8077 144.159C76.7912 142.968 63.1418 144.537 62.3286 147.847Z" fill="#CE6090"/>
<path d="M63.5193 152.262C67.0043 150.752 73.5967 148.341 77.314 148.922C77.8948 149.009 77.7496 149.996 77.1688 149.88C77.0816 149.88 75.252 149.241 70.315 150.316C68.0207 150.81 65.7555 151.478 63.5193 152.262Z" fill="#DE94B5"/>
<path d="M108.94 55.6989C109.434 56.2216 109.463 71.4103 111.409 75.5923C111.409 75.5923 116.578 97.2862 113.064 97.7219C110.015 98.0994 98.9499 80.2099 98.34 77.2186C97.5268 73.1818 98.34 53.0271 98.34 53.0271L108.94 55.6989Z" fill="#FC7575"/>
<path d="M109.55 62.9883C105.339 66.0957 101.389 63.9176 98.1658 58.7773C98.1658 58.7192 98.1658 58.6611 98.1658 58.603C98.2529 55.8151 98.34 53.2304 98.34 53.0561L108.94 55.6699C109.172 55.9312 109.289 59.1548 109.55 62.9883Z" fill="#FD5E5A"/>
<path d="M109.492 21.6042C109.492 21.6042 115.387 22.7949 116.113 28.2257C116.81 33.6564 117.798 38.1579 116.81 44.4889C115.823 50.8199 112.309 59.2419 106.559 60.5778C100.809 61.9428 94.7389 51.6912 94.7389 46.1442C94.7389 40.5683 92.6188 31.246 96.5685 25.5248C100.489 19.8037 109.492 21.6042 109.492 21.6042Z" fill="#FC7575"/>
<path d="M102.812 50.7328C105.92 52.1849 110.537 52.2139 110.537 52.2139C110.537 52.2139 110.218 52.8819 109.637 53.6079C108.301 53.5208 105.658 53.2594 103.48 52.4462C103.045 51.546 102.812 50.7328 102.812 50.7328Z" fill="white"/>
<path d="M103.509 52.4753C105.688 53.3175 108.301 53.5498 109.666 53.637C107.459 56.4249 105.107 55.757 103.509 52.4753Z" fill="#2E0028"/>
<path d="M109.492 21.6042C109.492 21.6042 115.387 22.7949 116.113 28.2257C116.752 33.1337 117.624 37.3156 117.043 42.7464C116.113 42.0494 114.777 41.3524 112.89 40.6845C106.443 38.4192 100.692 25.0892 100.431 24.5084L100.315 24.276L100.286 24.0147C100.257 23.4919 100.315 22.9401 100.46 22.3883C104.642 20.6168 109.492 21.6042 109.492 21.6042Z" fill="#FD5E5A"/>
<path d="M109.55 47.1026C109.405 45.3601 109.289 43.6467 109.289 41.9042C109.637 44.1113 109.724 45.7086 109.84 47.3349C108.969 47.5963 107.953 48.09 106.646 47.5673C107.662 47.7706 108.65 47.4511 109.55 47.1026Z" fill="#172866"/>
<path d="M106.355 41.7299C106.065 40.7425 105.281 39.7842 104.177 39.4647C102.261 38.9129 101.07 41.9042 99.763 41.8751C100.721 42.3979 102.232 40.6554 103.277 40.2198C103.829 39.9874 104.352 40.1327 104.903 40.4231C105.426 40.7135 105.92 41.1781 106.355 41.7299Z" fill="#172866"/>
<path d="M102.87 40.8297C102.87 41.4686 103.277 41.9623 103.8 41.9623C104.323 41.9623 104.729 41.4395 104.729 40.8297C104.729 40.1908 104.323 39.6971 103.8 39.6971C103.277 39.6971 102.87 40.2198 102.87 40.8297Z" fill="#172866"/>
<path d="M110.625 42.3688C110.973 41.3814 111.786 40.4812 112.89 40.2198C114.836 39.7842 115.881 42.8045 117.217 42.8335C116.259 43.2982 114.806 41.4976 113.79 41.0039C113.238 40.7425 112.715 40.8877 112.164 41.1201C111.612 41.4105 111.089 41.8751 110.625 42.3688Z" fill="#172866"/>
<path d="M114.168 41.6428C114.138 42.2817 113.703 42.7464 113.18 42.7464C112.657 42.7174 112.251 42.1946 112.28 41.5557C112.309 40.9168 112.745 40.4521 113.267 40.4521C113.79 40.5102 114.197 41.0329 114.168 41.6428Z" fill="#172866"/>
<path d="M107.023 36.9091C107.227 36.7639 105.542 34.9633 103.538 34.76C101.506 34.5567 99.3274 36.9091 99.3274 36.9091C99.3274 36.9091 102.29 35.0214 103.567 35.6312C104.816 36.2411 105.862 37.7222 107.023 36.9091Z" fill="#172866"/>
<path d="M104.264 17.0157C99.9663 17.5384 93.1416 16.4058 89.976 23.9275C88.0884 28.1966 84.2549 36.4154 84.2549 51.0522C84.2549 72.8333 64.6229 82.5041 64.6229 82.5041L73.2191 86.9475L78.3595 82.5041L74.8455 90.5196L88.9596 92.0297L89.5695 81.6039L92.4736 93.4818L100.954 92.0588C100.954 92.0588 96.4813 56.3959 96.1909 42.9206C96.249 42.9787 96.249 43.0078 96.249 43.0078C96.249 43.0078 96.1909 41.2653 96.1909 39.0291C96.1909 39.0291 96.1909 39.0291 96.1909 39C96.22 38.3321 96.22 37.6641 96.22 36.9962C96.249 34.8471 96.3652 32.6109 96.6265 31.1008C97.2655 27.4125 98.5142 25.5248 101.622 23.9566C104.729 22.3883 115.794 26.8898 115.794 26.8898C115.416 19.9779 108.592 16.4929 104.264 17.0157Z" fill="#1B2B80"/>
<path d="M110.044 18.2354C115.445 19.5132 117.101 28.429 121.515 33.1627C125.929 37.8965 124.826 44.7502 122.706 49.2517C120.586 53.7531 117.217 50.8199 117.217 50.8199C117.217 50.8199 118.988 51.8654 120.121 48.1191C121.254 44.3437 119.279 41.4105 113.296 39.3195C107.314 37.1995 101.622 23.8985 101.622 23.8985C101.477 21.3138 104.613 16.9576 110.044 18.2354Z" fill="#2F499F"/>
<path d="M117.217 50.878C119.279 52.1558 122.154 46.7832 120.063 43.2692C118.524 40.5393 115.155 39.4066 112.483 38.2159C108.214 35.6022 104.119 28.3709 101.651 23.9276C103.451 29.2131 107.256 36.5315 111.873 39.4357L112.977 39.9584C114.109 40.4521 117.565 41.4395 119.25 43.85C120.586 45.7377 119.947 48.6709 119.047 50.0648C118.64 50.6747 117.943 51.1394 117.217 50.878Z" fill="#003135"/>
<path d="M97.4107 43.6467C97.4107 43.6467 95.9005 36.6477 93.4029 38.3611C90.9054 40.0455 93.5772 47.7706 95.9295 47.7706C98.2528 47.7706 97.4107 43.6467 97.4107 43.6467Z" fill="#FC7575"/>
<path d="M94.9712 39.8132C94.9712 39.8132 98.6594 46.1733 96.1328 45.4763C93.6062 44.7503 92.5898 38.6225 94.9712 39.8132Z" fill="#FD5E5A"/>
<path d="M104.323 45.7957C104.061 46.6089 102.638 46.8703 101.157 46.3185C99.6759 45.7957 98.6885 44.6922 98.9208 43.85C99.1822 43.0368 100.605 42.7754 102.086 43.3272C103.567 43.879 104.555 44.9826 104.323 45.7957Z" fill="#FD5E5A"/>
<path d="M116.288 45.3892C116.404 46.1733 115.445 46.9864 114.139 47.1897C112.832 47.393 111.699 46.9284 111.583 46.1442C111.467 45.3601 112.425 44.547 113.732 44.3437C115.039 44.1404 116.171 44.605 116.288 45.3892Z" fill="#FD5E5A"/>
<path d="M499.751 210.577C498.676 209.473 453.052 219.406 453.052 219.406L463.275 144.595L471.348 99.0287L485.433 67.2284C485.433 67.2284 502.974 61.7395 503.991 63.6272L509.77 121.274L499.751 210.577Z" fill="#26253A"/>
<path d="M515.259 395.949L516.624 403.674C516.624 403.674 513.11 415.522 507.766 421.011C502.423 426.529 490.951 426.878 490.951 422.173C490.951 417.497 502.916 402.947 502.916 397.313C502.887 391.737 515.259 395.949 515.259 395.949Z" fill="#4C5063"/>
<path d="M478.87 397.372L480.903 411.689C480.903 411.689 472.713 411.689 467.021 411.689C461.329 411.689 445.647 411.689 445.647 411.689C445.647 411.689 446.779 408.175 457.031 406.055C467.253 403.935 467.834 400.276 467.834 400.276L467.05 391.04L476.372 389.646L478.87 397.372Z" fill="#4C5063"/>
<path d="M493.652 233.636L472.829 309.056L480.467 399.956H467.05L448.609 303.8L467.05 193.733L493.652 233.636Z" fill="#464F7C"/>
<path d="M467.05 190.8L479.451 233.694C479.451 233.694 498.444 297.73 501.522 334.787C504.601 371.844 501.522 397.168 501.522 397.168L518.453 399.985C518.453 399.985 528.24 323.083 524.581 297.295C520.951 271.506 525.394 208.66 525.394 208.66L518.453 190.829H467.05V190.8Z" fill="#5D69A5"/>
<path d="M518.425 72.5139C518.425 72.5139 496.585 60.4617 482.384 75.0986C468.183 89.7355 467.021 131.12 467.021 131.12V178.951L464.988 200.238L518.192 193.704L511.019 120.694L518.425 72.5139Z" fill="#B73E6B"/>
<path d="M472.829 143.433L507.708 67.1413L530.157 75.0986L522.316 143.433L536.982 220.103C536.982 220.103 479.857 214.991 472.858 222.223V143.433H472.829Z" fill="#7D87B7"/>
<path d="M482.384 75.0986C482.384 75.0986 469.432 117.47 469.432 130.452C469.432 143.433 459.209 219.406 459.209 219.406H453.052L461.59 130.452L472.132 89.7645L482.384 75.0986Z" fill="#7D87B7"/>
<path d="M485.462 67.1993L468.386 144.566L472.132 89.7645L475.559 86.0763L472.829 86.6862L479.654 71.5265L485.462 67.1993Z" fill="#979FC5"/>
<path d="M429.006 157.925C438.154 158.854 442.278 159.377 442.481 158.68C441.958 157.954 439.955 157.576 433.565 156.618C429.906 156.066 423.924 154.498 423.198 153.772C422.152 152.262 425.55 152.581 427.38 153.017C427.583 153.075 446.373 157.141 447.825 154.44C449.277 151.681 443.904 150.752 440.681 150.229C437.399 149.706 435.714 146.802 436.934 146.337C438.473 145.727 441.755 149.096 447.099 149.648C451.774 150.142 458.512 151.187 461.445 151.855L464.262 153.772L472.888 153.162L472.452 161.903L465.86 163.617C460.255 165.679 451.891 168.409 446.315 169.367C440.477 170.384 435.511 170.18 432.985 169.687C432.375 169.57 432.346 168.786 432.926 168.699C434.466 168.467 436.731 168.351 438.328 168.293C443.556 168.031 445.298 166.986 445.618 165.882C444.892 165.098 442.83 165.127 435.656 165.592C432.346 165.795 427.786 166.114 427.06 165.795C424.127 163.762 431.562 163.443 434.93 163.472C438.386 163.472 442.075 163.849 442.51 162.281C442.655 161.758 438.154 161.032 432.52 160.829C412.046 160.045 418.987 156.908 429.006 157.925Z" fill="#FC7575"/>
<path d="M530.157 75.0986C530.157 75.0986 538.056 73.0366 541.745 101.033C545.433 129.029 537.301 165.592 530.157 169.106C522.984 172.62 463.304 164.895 463.304 164.895L467.05 147.267C467.05 147.267 504.514 148.167 511.745 140.732C518.947 133.298 519.615 111.168 518.454 98.9997C517.292 86.8313 530.157 75.0986 530.157 75.0986Z" fill="#979FC5"/>
<path d="M478.522 11.2655C478.522 11.2655 470.39 21.6623 469.025 28.8065C467.602 36.1831 465.83 47.9739 465.83 47.9739L469.025 48.061C469.025 48.061 471.494 54.7115 471.377 59.0968C471.261 63.482 478.057 60.9264 481.948 61.0425C485.84 61.1587 494.61 57.9351 498.328 45.4473C502.045 32.9595 508.841 10.6847 478.522 11.2655Z" fill="#FC7575"/>
<path d="M505.908 73.6465C505.908 73.6465 482.936 80.7326 484.127 79.6C485.201 78.5545 483.633 62.756 483.255 57.6447C484.127 55.5537 490.806 39.5809 490.37 40.5974L491.735 37.3157L505.908 73.6465Z" fill="#FC7575"/>
<path d="M468.096 3.2791C467.718 3.88897 461.213 16.6091 471.697 21.8366C482.181 27.064 484.998 20.0651 487.728 24.5084C490.458 28.9808 484.969 35.9217 487.147 39.9875L490.661 40.8006C490.661 40.8006 491.445 38.6516 492.868 38.7097C494.291 38.7387 494.378 49.8325 496.672 49.8906C498.938 49.9487 503.642 40.6554 505.879 36.3573C508.115 32.0301 512.965 17.3642 504.92 13.2984C496.876 9.23259 493.246 12.0496 493.362 8.39039C493.449 4.73117 489.819 8.47752 489.819 8.47752C489.819 8.47752 487.931 5.68954 489.267 2.61114C490.603 -0.46725 480.7 -1.8322 478.231 4.29555C475.705 10.4523 472.191 -3.34235 468.096 3.2791Z" fill="#2D1175"/>
<path d="M489.906 34.6439C489.906 34.6439 489.528 41.8461 491.213 41.9042C492.897 41.9623 496.702 37.9836 496.208 33.6274C495.714 29.2422 490.806 29.6197 489.906 34.6439Z" fill="#FC7575"/>
<path d="M491.097 33.8888C491.097 33.8888 490.167 36.7349 491.416 38.0708C492.636 39.4067 495.162 36.3573 493.885 33.9759C492.607 31.5945 491.416 32.2625 491.097 33.8888Z" fill="#FD5E5A"/>
<path d="M472.8 31.3622L472.481 33.1047C472.481 33.1047 475.443 32.8142 477.04 34.5567C478.609 36.2702 478.841 36.4735 478.841 36.4735C478.841 36.4735 478.057 32.4948 472.8 31.3622Z" fill="#2D1175"/>
<path d="M475.821 36.822C475.792 37.6932 475.182 38.3902 474.485 38.3902C473.759 38.3612 473.207 37.6351 473.236 36.7639C473.265 35.8926 473.875 35.1956 474.572 35.1956C475.298 35.2247 475.85 35.9507 475.821 36.822Z" fill="#2D1175"/>
<path d="M472.888 52.8528C473.904 52.8819 474.92 52.6786 475.763 52.2139C476.169 51.9526 476.489 51.6331 476.721 51.2265C476.982 50.849 477.04 50.3843 477.099 49.9487V49.8906C477.128 49.6002 477.389 49.3969 477.679 49.455C477.97 49.5131 478.144 49.7745 478.115 50.0649C478.115 50.0939 478.115 50.123 478.086 50.152C477.912 50.7038 477.708 51.2846 477.302 51.7202C476.924 52.1559 476.46 52.5043 475.937 52.7076C474.949 53.0561 473.875 53.0271 472.888 52.8528Z" fill="#2D1175"/>
<path d="M463.071 16.2897C462.984 16.8705 463.536 17.945 463.885 18.4387C465.685 20.9944 469.286 21.43 471.697 21.8366C471.377 21.8366 468.125 22.3884 465.453 21.5171C462.549 20.6459 460.864 18.613 460.4 16.5801L463.071 16.2897Z" fill="#2D1175"/>
<path d="M491.097 59.8228C489.964 60.9264 486.189 63.3368 483.836 64.7889C483.517 60.8392 483.226 57.6447 483.226 57.6447C483.226 57.6447 485.143 59.4453 490.312 40.4812C490.312 40.4812 490.312 40.5102 490.341 40.5973C490.574 42.2527 492.694 58.3126 491.097 59.8228Z" fill="#FD5E5A"/>
<path d="M471.145 56.1345C471.145 56.1345 470.506 58.9515 470.448 60.5779C470.39 62.2042 474.281 64.1209 477.854 63.1626C481.426 62.2332 486.392 59.968 487.641 58.7483C488.889 57.5285 490.312 40.7716 490.312 40.7716L487.118 40.0456C487.118 40.0456 485.23 50.9651 483.865 52.272C482.529 53.5789 471.145 56.1345 471.145 56.1345Z" fill="#2D1175"/>
<path d="M505.007 164.082C505.007 167.363 511.019 170.035 518.454 170.035C525.859 170.035 531.9 167.363 531.9 164.082C531.9 160.8 525.888 158.128 518.454 158.128C511.019 158.128 505.007 160.8 505.007 164.082Z" fill="#B96E16"/>
<path d="M518.192 168.496C518.192 168.38 518.279 168.293 518.366 168.293H518.424C518.918 168.293 519.412 168.293 519.906 168.264C519.993 168.264 520.109 168.351 520.109 168.438C520.109 168.554 520.022 168.641 519.935 168.641C519.441 168.67 518.947 168.67 518.453 168.67H518.395C518.279 168.699 518.192 168.612 518.192 168.496ZM516.885 168.641C516.392 168.612 515.898 168.583 515.404 168.525C515.317 168.525 515.23 168.409 515.23 168.322C515.23 168.205 515.346 168.147 515.433 168.147C515.927 168.205 516.421 168.235 516.914 168.264C517.001 168.264 517.089 168.351 517.089 168.467C517.089 168.583 517.001 168.641 516.885 168.641ZM521.212 168.38C521.212 168.264 521.271 168.176 521.387 168.176C521.88 168.118 522.374 168.06 522.839 167.973C522.955 167.973 523.042 168.031 523.042 168.118C523.071 168.235 522.984 168.322 522.897 168.351C522.403 168.438 521.909 168.496 521.416 168.554C521.416 168.554 521.416 168.554 521.387 168.554C521.3 168.554 521.212 168.467 521.212 168.38ZM513.923 168.322C513.429 168.235 512.936 168.147 512.442 168.031C512.355 168.002 512.268 167.915 512.297 167.799C512.326 167.683 512.413 167.625 512.529 167.654C512.994 167.77 513.487 167.857 513.981 167.944C514.068 167.973 514.155 168.06 514.126 168.176C514.126 168.264 514.039 168.322 513.923 168.322C513.952 168.322 513.923 168.322 513.923 168.322ZM524.146 167.915C524.117 167.799 524.175 167.712 524.291 167.683C524.785 167.567 525.249 167.45 525.714 167.305C525.801 167.276 525.917 167.334 525.946 167.421C525.975 167.508 525.917 167.625 525.83 167.654C525.365 167.799 524.872 167.944 524.378 168.06H524.349C524.233 168.06 524.175 168.002 524.146 167.915ZM511.019 167.654C510.525 167.479 510.031 167.305 509.596 167.131C509.509 167.102 509.451 166.986 509.509 166.87C509.538 166.782 509.654 166.724 509.741 166.753C510.177 166.928 510.641 167.102 511.135 167.276C511.222 167.305 511.28 167.421 511.251 167.508C511.222 167.596 511.164 167.654 511.077 167.654C511.048 167.654 511.019 167.654 511.019 167.654ZM526.992 167.044C526.963 166.957 526.992 166.841 527.079 166.782C527.572 166.579 528.008 166.347 528.386 166.114C528.473 166.056 528.589 166.085 528.647 166.173C528.705 166.26 528.676 166.376 528.589 166.434C528.182 166.666 527.718 166.899 527.224 167.102C527.195 167.102 527.166 167.131 527.166 167.131C527.079 167.16 527.021 167.102 526.992 167.044ZM508.231 166.434C507.737 166.144 507.331 165.824 507.011 165.505C506.953 165.417 506.924 165.301 507.011 165.243C507.069 165.156 507.185 165.156 507.273 165.243C507.563 165.534 507.97 165.853 508.434 166.114C508.521 166.173 508.55 166.289 508.492 166.376C508.463 166.434 508.405 166.463 508.318 166.463C508.289 166.463 508.26 166.463 508.231 166.434ZM529.547 165.534C529.489 165.447 529.489 165.33 529.547 165.272C529.954 164.866 530.186 164.459 530.186 164.111C530.186 163.994 530.273 163.907 530.36 163.907C530.477 163.907 530.535 163.994 530.535 164.111C530.535 164.575 530.273 165.069 529.78 165.563C529.751 165.592 529.693 165.621 529.664 165.621C529.634 165.592 529.605 165.563 529.547 165.534ZM506.488 164.227C506.372 164.227 506.314 164.14 506.314 164.023C506.343 163.559 506.605 163.065 507.098 162.6C507.185 162.542 507.302 162.542 507.36 162.6C507.418 162.688 507.418 162.804 507.36 162.862C506.953 163.268 506.721 163.675 506.692 164.023C506.663 164.14 506.576 164.227 506.488 164.227ZM529.576 162.92C529.286 162.63 528.879 162.339 528.415 162.049C528.328 161.991 528.299 161.874 528.357 161.787C528.415 161.7 528.531 161.671 528.618 161.729C529.112 162.02 529.518 162.339 529.838 162.659C529.925 162.746 529.925 162.862 529.838 162.92C529.809 162.949 529.751 162.978 529.693 162.978C529.663 162.978 529.605 162.949 529.576 162.92ZM508.231 161.962C508.173 161.874 508.202 161.758 508.289 161.7C508.696 161.468 509.16 161.236 509.654 161.032C509.741 161.003 509.857 161.032 509.886 161.148C509.915 161.236 509.886 161.352 509.799 161.41C509.305 161.613 508.87 161.845 508.492 162.049C508.463 162.078 508.434 162.078 508.405 162.078C508.347 162.049 508.26 162.02 508.231 161.962ZM527.108 161.381C526.672 161.206 526.208 161.032 525.714 160.858C525.627 160.829 525.569 160.713 525.598 160.626C525.627 160.539 525.714 160.48 525.83 160.509C526.324 160.655 526.817 160.858 527.253 161.032C527.34 161.061 527.398 161.177 527.34 161.294C527.311 161.381 527.253 161.41 527.166 161.41C527.166 161.41 527.137 161.41 527.108 161.381ZM510.961 160.742C510.932 160.655 510.99 160.539 511.077 160.509C511.542 160.364 512.035 160.248 512.529 160.103C512.616 160.074 512.732 160.132 512.761 160.248C512.79 160.364 512.732 160.451 512.616 160.48C512.122 160.597 511.629 160.713 511.193 160.858C511.164 160.858 511.164 160.858 511.135 160.858C511.048 160.858 510.99 160.829 510.961 160.742ZM524.32 160.48C523.855 160.364 523.361 160.277 522.868 160.19C522.752 160.161 522.694 160.074 522.723 159.958C522.752 159.842 522.839 159.783 522.926 159.812C523.42 159.9 523.913 159.987 524.407 160.103C524.494 160.132 524.581 160.219 524.552 160.335C524.523 160.422 524.465 160.48 524.378 160.48C524.349 160.48 524.32 160.48 524.32 160.48ZM513.836 160.045C513.807 159.929 513.894 159.842 513.981 159.812C514.475 159.725 514.968 159.667 515.462 159.609C515.578 159.609 515.666 159.667 515.666 159.783C515.666 159.9 515.607 159.987 515.491 159.987C514.998 160.045 514.504 160.103 514.039 160.19H514.01C513.923 160.19 513.865 160.132 513.836 160.045ZM521.416 160.016C520.951 159.958 520.457 159.929 519.935 159.9C519.818 159.9 519.76 159.812 519.76 159.696C519.76 159.58 519.877 159.522 519.964 159.522C520.457 159.551 520.98 159.58 521.445 159.638C521.532 159.638 521.619 159.754 521.619 159.842C521.59 159.929 521.532 160.016 521.416 160.016ZM516.798 159.696C516.798 159.58 516.885 159.493 516.972 159.493C517.437 159.464 517.902 159.464 518.424 159.464H518.453V159.667V159.464C518.57 159.464 518.628 159.551 518.628 159.667C518.628 159.783 518.541 159.871 518.424 159.871C517.931 159.871 517.437 159.871 516.972 159.9C516.885 159.9 516.798 159.812 516.798 159.696Z" fill="#FABE78"/>
<path d="M472.829 143.433L504.891 93.2495L501.493 85.7568L508.667 86.2215L518.425 70.5681L504.02 63.5982L472.829 143.433Z" fill="#979FC5"/>
<path d="M426.102 259.047H175.242V267.208H426.102V259.047Z" fill="#3E2720"/>
<path d="M197.342 267.208H190.227V411.282H197.342V267.208Z" fill="#3E2720"/>
<path d="M413.672 267.208H406.557V411.282H413.672V267.208Z" fill="#3E2720"/>
<path d="M402.288 267.208H395.173V411.282H402.288V267.208Z" fill="#3E2720"/>
<path d="M213.141 267.208H206.026V411.282H213.141V267.208Z" fill="#3E2720"/>
<path d="M247.555 183.656H209.22V258.176H247.555V183.656Z" fill="#99C8F2"/>
<path d="M247.787 183.656H244.128V258.176H247.787V183.656Z" fill="#85C5FF"/>
<path d="M206.026 183.656H248.397L256.354 168.176L219.443 167.973L206.026 183.656Z" fill="#0065BF"/>
<path d="M221.94 168.002L208.581 183.656H209.54L222.899 168.002H221.94Z" fill="#0C52CB"/>
<path d="M225.629 168.002L212.27 183.656H213.228L226.558 168.031L225.629 168.002Z" fill="#0C52CB"/>
<path d="M229.288 168.031L215.958 183.656H216.916L230.246 168.031H229.288Z" fill="#0C52CB"/>
<path d="M232.976 168.06L219.646 183.656H220.604L233.934 168.06H232.976Z" fill="#0C52CB"/>
<path d="M236.635 168.06L223.363 183.656H224.322L237.594 168.089L236.635 168.06Z" fill="#0C52CB"/>
<path d="M240.324 168.089L227.052 183.656H228.01L241.282 168.089H240.324Z" fill="#0C52CB"/>
<path d="M244.012 168.118L230.74 183.656H231.698L244.97 168.118H244.012Z" fill="#0C52CB"/>
<path d="M247.671 168.118L234.428 183.656H235.387L248.629 168.118H247.671Z" fill="#0C52CB"/>
<path d="M251.359 168.147L238.116 183.656H239.075L252.318 168.147H251.359Z" fill="#0C52CB"/>
<path d="M255.048 168.176L241.834 183.656H242.763L255.977 168.176H255.048Z" fill="#0C52CB"/>
<path d="M258.765 142.388L245.203 158.07H302.85L315.889 142.591L258.765 142.388Z" fill="#0065BF"/>
<path d="M302.821 158.07H247.555V258.176H302.821V158.07Z" fill="#99C8F2"/>
<path d="M322.511 158.07H302.85V258.176H322.511V158.07Z" fill="#85C5FF"/>
<path d="M322.482 158.07H302.85L315.889 142.591L322.482 149.387V158.07Z" fill="#004380"/>
<path d="M313.682 142.591L300.468 158.07H301.427L314.641 142.591H313.682Z" fill="#0C52CB"/>
<path d="M309.617 142.562L296.374 158.07H297.332L310.575 142.562H309.617Z" fill="#0C52CB"/>
<path d="M305.522 142.562L292.279 158.07H293.237L306.48 142.562H305.522Z" fill="#0C52CB"/>
<path d="M301.456 142.533L288.213 158.07H289.142L302.414 142.533H301.456Z" fill="#0C52CB"/>
<path d="M297.39 142.533L284.118 158.07H285.077L298.319 142.533H297.39Z" fill="#0C52CB"/>
<path d="M293.295 142.504L280.023 158.07H280.982L294.254 142.504H293.295Z" fill="#0C52CB"/>
<path d="M289.229 142.504L275.928 158.07H276.887L290.188 142.504H289.229Z" fill="#0C52CB"/>
<path d="M285.135 142.475L271.834 158.07H272.792L286.093 142.475H285.135Z" fill="#0C52CB"/>
<path d="M281.069 142.475L267.739 158.07H268.697L282.027 142.475H281.069Z" fill="#0C52CB"/>
<path d="M276.974 142.446L263.644 158.07H264.602L277.932 142.446H276.974Z" fill="#0C52CB"/>
<path d="M272.908 142.446L259.578 158.07H260.536L273.867 142.446H272.908Z" fill="#0C52CB"/>
<path d="M268.842 142.417L255.483 158.07H256.442L269.772 142.417H268.842Z" fill="#0C52CB"/>
<path d="M264.747 142.417L251.388 158.07H252.347L265.706 142.417H264.747Z" fill="#0C52CB"/>
<path d="M260.682 142.388L247.294 158.07H248.252L261.64 142.388H260.682Z" fill="#0C52CB"/>
<path d="M228.388 187.896H226.558V195.359H228.388V187.896Z" fill="#0065BF"/>
<path d="M231.176 187.896H229.346V195.359H231.176V187.896Z" fill="#0065BF"/>
<path d="M233.935 187.896H232.105V195.359H233.935V187.896Z" fill="#0065BF"/>
<path d="M236.693 187.896H234.864V195.359H236.693V187.896Z" fill="#0065BF"/>
<path d="M239.452 187.896H237.623V195.359H239.452V187.896Z" fill="#0065BF"/>
<path d="M242.24 187.896H240.411V195.359H242.24V187.896Z" fill="#0065BF"/>
<path d="M228.388 196.898H226.558V204.362H228.388V196.898Z" fill="#0065BF"/>
<path d="M231.176 196.898H229.346V204.362H231.176V196.898Z" fill="#0065BF"/>
<path d="M233.935 196.898H232.105V204.362H233.935V196.898Z" fill="#0065BF"/>
<path d="M236.693 196.898H234.864V204.362H236.693V196.898Z" fill="#0065BF"/>
<path d="M239.452 196.898H237.623V204.362H239.452V196.898Z" fill="#0065BF"/>
<path d="M242.24 196.898H240.411V204.362H242.24V196.898Z" fill="#0065BF"/>
<path d="M228.388 205.872H226.558V213.336H228.388V205.872Z" fill="#0065BF"/>
<path d="M231.176 205.872H229.346V213.336H231.176V205.872Z" fill="#0065BF"/>
<path d="M233.935 205.872H232.105V213.336H233.935V205.872Z" fill="#0065BF"/>
<path d="M236.693 205.872H234.864V213.336H236.693V205.872Z" fill="#0065BF"/>
<path d="M239.452 205.872H237.623V213.336H239.452V205.872Z" fill="#0065BF"/>
<path d="M242.24 205.872H240.411V213.336H242.24V205.872Z" fill="#0065BF"/>
<path d="M228.388 214.875H226.558V222.339H228.388V214.875Z" fill="#0065BF"/>
<path d="M231.176 214.875H229.346V222.339H231.176V214.875Z" fill="#0065BF"/>
<path d="M233.935 214.875H232.105V222.339H233.935V214.875Z" fill="#0065BF"/>
<path d="M236.693 214.875H234.864V222.339H236.693V214.875Z" fill="#0065BF"/>
<path d="M239.452 214.875H237.623V222.339H239.452V214.875Z" fill="#0065BF"/>
<path d="M242.24 214.875H240.411V222.339H242.24V214.875Z" fill="#0065BF"/>
<path d="M228.388 223.849H226.558V231.313H228.388V223.849Z" fill="#0065BF"/>
<path d="M231.176 223.849H229.346V231.313H231.176V223.849Z" fill="#0065BF"/>
<path d="M233.935 223.849H232.105V231.313H233.935V223.849Z" fill="#0065BF"/>
<path d="M236.693 223.849H234.864V231.313H236.693V223.849Z" fill="#0065BF"/>
<path d="M239.452 223.849H237.623V231.313H239.452V223.849Z" fill="#0065BF"/>
<path d="M242.24 223.849H240.411V231.313H242.24V223.849Z" fill="#0065BF"/>
<path d="M228.388 232.852H226.558V240.315H228.388V232.852Z" fill="#0065BF"/>
<path d="M231.176 232.852H229.346V240.315H231.176V232.852Z" fill="#0065BF"/>
<path d="M233.935 232.852H232.105V240.315H233.935V232.852Z" fill="#0065BF"/>
<path d="M236.693 232.852H234.864V240.315H236.693V232.852Z" fill="#0065BF"/>
<path d="M239.452 232.852H237.623V240.315H239.452V232.852Z" fill="#0065BF"/>
<path d="M242.24 232.852H240.411V240.315H242.24V232.852Z" fill="#0065BF"/>
<path d="M228.388 241.826H226.558V249.289H228.388V241.826Z" fill="#0065BF"/>
<path d="M231.176 241.826H229.346V249.289H231.176V241.826Z" fill="#0065BF"/>
<path d="M233.935 241.826H232.105V249.289H233.935V241.826Z" fill="#0065BF"/>
<path d="M236.693 241.826H234.864V249.289H236.693V241.826Z" fill="#0065BF"/>
<path d="M239.452 241.826H237.623V249.289H239.452V241.826Z" fill="#0065BF"/>
<path d="M242.24 241.826H240.411V249.289H242.24V241.826Z" fill="#0065BF"/>
<path d="M254.467 161.7H251.737V172.91H254.467V161.7Z" fill="#0065BF"/>
<path d="M258.62 161.7H255.89V172.91H258.62V161.7Z" fill="#0065BF"/>
<path d="M262.773 161.7H260.043V172.91H262.773V161.7Z" fill="#0065BF"/>
<path d="M266.897 161.7H264.167V172.91H266.897V161.7Z" fill="#0065BF"/>
<path d="M271.05 161.7H268.32V172.91H271.05V161.7Z" fill="#0065BF"/>
<path d="M275.202 161.7H272.473V172.91H275.202V161.7Z" fill="#0065BF"/>
<path d="M254.467 175.146H251.737V186.356H254.467V175.146Z" fill="#0065BF"/>
<path d="M258.62 175.146H255.89V186.356H258.62V175.146Z" fill="#0065BF"/>
<path d="M262.773 175.146H260.043V186.356H262.773V175.146Z" fill="#0065BF"/>
<path d="M266.897 175.146H264.167V186.356H266.897V175.146Z" fill="#0065BF"/>
<path d="M271.05 175.146H268.32V186.356H271.05V175.146Z" fill="#0065BF"/>
<path d="M275.202 175.146H272.473V186.356H275.202V175.146Z" fill="#0065BF"/>
<path d="M254.467 188.622H251.737V199.832H254.467V188.622Z" fill="#0065BF"/>
<path d="M258.62 188.622H255.89V199.832H258.62V188.622Z" fill="#0065BF"/>
<path d="M262.773 188.622H260.043V199.832H262.773V188.622Z" fill="#0065BF"/>
<path d="M266.897 188.622H264.167V199.832H266.897V188.622Z" fill="#0065BF"/>
<path d="M271.05 188.622H268.32V199.832H271.05V188.622Z" fill="#0065BF"/>
<path d="M275.202 188.622H272.473V199.832H275.202V188.622Z" fill="#0065BF"/>
<path d="M254.467 202.097H251.737V213.307H254.467V202.097Z" fill="#0065BF"/>
<path d="M258.62 202.097H255.89V213.307H258.62V202.097Z" fill="#0065BF"/>
<path d="M262.773 202.097H260.043V213.307H262.773V202.097Z" fill="#0065BF"/>
<path d="M266.897 202.097H264.167V213.307H266.897V202.097Z" fill="#0065BF"/>
<path d="M271.05 202.097H268.32V213.307H271.05V202.097Z" fill="#0065BF"/>
<path d="M275.202 202.097H272.473V213.307H275.202V202.097Z" fill="#0065BF"/>
<path d="M254.467 215.572H251.737V226.782H254.467V215.572Z" fill="#0065BF"/>
<path d="M258.62 215.572H255.89V226.782H258.62V215.572Z" fill="#0065BF"/>
<path d="M262.773 215.572H260.043V226.782H262.773V215.572Z" fill="#0065BF"/>
<path d="M266.897 215.572H264.167V226.782H266.897V215.572Z" fill="#0065BF"/>
<path d="M271.05 215.572H268.32V226.782H271.05V215.572Z" fill="#0065BF"/>
<path d="M275.202 215.572H272.473V226.782H275.202V215.572Z" fill="#0065BF"/>
<path d="M254.467 229.047H251.737V240.257H254.467V229.047Z" fill="#0065BF"/>
<path d="M258.62 229.047H255.89V240.257H258.62V229.047Z" fill="#0065BF"/>
<path d="M262.773 229.047H260.043V240.257H262.773V229.047Z" fill="#0065BF"/>
<path d="M266.897 229.047H264.167V240.257H266.897V229.047Z" fill="#0065BF"/>
<path d="M271.05 229.047H268.32V240.257H271.05V229.047Z" fill="#0065BF"/>
<path d="M275.202 229.047H272.473V240.257H275.202V229.047Z" fill="#0065BF"/>
<path d="M254.467 242.493H251.737V253.703H254.467V242.493Z" fill="#0065BF"/>
<path d="M258.62 242.493H255.89V253.703H258.62V242.493Z" fill="#0065BF"/>
<path d="M262.773 242.493H260.043V253.703H262.773V242.493Z" fill="#0065BF"/>
<path d="M266.897 242.493H264.167V253.703H266.897V242.493Z" fill="#0065BF"/>
<path d="M271.05 242.493H268.32V253.703H271.05V242.493Z" fill="#0065BF"/>
<path d="M275.202 242.493H272.473V253.703H275.202V242.493Z" fill="#0065BF"/>
<path d="M281.185 161.7H278.455V172.91H281.185V161.7Z" fill="#0065BF"/>
<path d="M285.309 161.7H282.579V172.91H285.309V161.7Z" fill="#0065BF"/>
<path d="M289.462 161.7H286.732V172.91H289.462V161.7Z" fill="#0065BF"/>
<path d="M293.615 161.7H290.885V172.91H293.615V161.7Z" fill="#0065BF"/>
<path d="M297.768 161.7H295.038V172.91H297.768V161.7Z" fill="#0065BF"/>
<path d="M301.921 161.7H299.191V172.91H301.921V161.7Z" fill="#0065BF"/>
<path d="M281.185 175.146H278.455V186.356H281.185V175.146Z" fill="#0065BF"/>
<path d="M285.309 175.146H282.579V186.356H285.309V175.146Z" fill="#0065BF"/>
<path d="M289.462 175.146H286.732V186.356H289.462V175.146Z" fill="#0065BF"/>
<path d="M293.615 175.146H290.885V186.356H293.615V175.146Z" fill="#0065BF"/>
<path d="M297.768 175.146H295.038V186.356H297.768V175.146Z" fill="#0065BF"/>
<path d="M301.921 175.146H299.191V186.356H301.921V175.146Z" fill="#0065BF"/>
<path d="M281.185 188.622H278.455V199.832H281.185V188.622Z" fill="#0065BF"/>
<path d="M285.309 188.622H282.579V199.832H285.309V188.622Z" fill="#0065BF"/>
<path d="M289.462 188.622H286.732V199.832H289.462V188.622Z" fill="#0065BF"/>
<path d="M293.615 188.622H290.885V199.832H293.615V188.622Z" fill="#0065BF"/>
<path d="M297.768 188.622H295.038V199.832H297.768V188.622Z" fill="#0065BF"/>
<path d="M301.921 188.622H299.191V199.832H301.921V188.622Z" fill="#0065BF"/>
<path d="M281.185 202.097H278.455V213.307H281.185V202.097Z" fill="#0065BF"/>
<path d="M285.309 202.097H282.579V213.307H285.309V202.097Z" fill="#0065BF"/>
<path d="M289.462 202.097H286.732V213.307H289.462V202.097Z" fill="#0065BF"/>
<path d="M293.615 202.097H290.885V213.307H293.615V202.097Z" fill="#0065BF"/>
<path d="M297.768 202.097H295.038V213.307H297.768V202.097Z" fill="#0065BF"/>
<path d="M301.921 202.097H299.191V213.307H301.921V202.097Z" fill="#0065BF"/>
<path d="M281.185 215.572H278.455V226.782H281.185V215.572Z" fill="#0065BF"/>
<path d="M285.309 215.572H282.579V226.782H285.309V215.572Z" fill="#0065BF"/>
<path d="M289.462 215.572H286.732V226.782H289.462V215.572Z" fill="#0065BF"/>
<path d="M293.615 215.572H290.885V226.782H293.615V215.572Z" fill="#0065BF"/>
<path d="M297.768 215.572H295.038V226.782H297.768V215.572Z" fill="#0065BF"/>
<path d="M301.921 215.572H299.191V226.782H301.921V215.572Z" fill="#0065BF"/>
<path d="M281.185 229.047H278.455V240.257H281.185V229.047Z" fill="#0065BF"/>
<path d="M285.309 229.047H282.579V240.257H285.309V229.047Z" fill="#0065BF"/>
<path d="M289.462 229.047H286.732V240.257H289.462V229.047Z" fill="#0065BF"/>
<path d="M293.615 229.047H290.885V240.257H293.615V229.047Z" fill="#0065BF"/>
<path d="M297.768 229.047H295.038V240.257H297.768V229.047Z" fill="#0065BF"/>
<path d="M301.921 229.047H299.191V240.257H301.921V229.047Z" fill="#0065BF"/>
<path d="M281.185 242.493H278.455V253.703H281.185V242.493Z" fill="#0065BF"/>
<path d="M285.309 242.493H282.579V253.703H285.309V242.493Z" fill="#0065BF"/>
<path d="M289.462 242.493H286.732V253.703H289.462V242.493Z" fill="#0065BF"/>
<path d="M293.615 242.493H290.885V253.703H293.615V242.493Z" fill="#0065BF"/>
<path d="M297.768 242.493H295.038V253.703H297.768V242.493Z" fill="#0065BF"/>
<path d="M301.921 242.493H299.191V253.703H301.921V242.493Z" fill="#0065BF"/>
<path d="M358.871 257.914H344.06V133.937L358.871 127.46V257.914Z" fill="#0C52CB"/>
<path d="M374.524 142.504L358.871 127.46V257.914H374.902L374.524 142.504Z" fill="#99C8F2"/>
<path d="M344.06 137.334H335.144V257.914H344.06V137.334Z" fill="#0D3153"/>
<path d="M336.044 133.269H310.197V257.944H336.044V133.269Z" fill="#0065BF"/>
<path d="M337.932 132.368H304.941V133.53H337.932V132.368Z" fill="#004380"/>
<path d="M344.06 136.754H336.073V137.915H344.06V136.754Z" fill="#004380"/>
<path d="M375.105 143.462L358.755 128.128L344.292 134.459L343.827 133.385L358.987 126.763L375.889 142.62L375.105 143.462Z" fill="#004380"/>
<path d="M355.618 135.476H351.901V143.811H355.618V135.476Z" fill="#004380"/>
<path d="M351.465 153.162H348.096V160.509H351.465V153.162Z" fill="#004380"/>
<path d="M353.76 169.803H351.901V177.412H353.76V169.803Z" fill="#004380"/>
<path d="M330.701 139.803H324.573V147.005H330.701V139.803Z" fill="#4E98D9"/>
<path d="M336.741 149.822H311.998V152.175H336.741V149.822Z" fill="#4E98D9"/>
<path d="M336.945 156.269H312.201V158.622H336.945V156.269Z" fill="#4E98D9"/>
<path d="M337.148 162.688H312.404V165.04H337.148V162.688Z" fill="#4E98D9"/>
<path d="M337.38 169.106H312.637V171.458H337.38V169.106Z" fill="#4E98D9"/>
<path d="M337.583 175.553H312.84V177.905H337.583V175.553Z" fill="#4E98D9"/>
<path d="M337.787 181.971H313.043V184.323H337.787V181.971Z" fill="#4E98D9"/>
<path d="M337.99 188.418H313.247V190.771H337.99V188.418Z" fill="#4E98D9"/>
<path d="M338.193 194.836H313.45V197.189H338.193V194.836Z" fill="#4E98D9"/>
<path d="M338.426 201.255H313.682V203.607H338.426V201.255Z" fill="#4E98D9"/>
<path d="M338.629 207.702H313.886V210.054H338.629V207.702Z" fill="#4E98D9"/>
<path d="M338.832 214.12H314.089V216.472H338.832V214.12Z" fill="#4E98D9"/>
<path d="M339.036 220.538H314.292V222.891H339.036V220.538Z" fill="#4E98D9"/>
<path d="M339.239 226.985H314.495V229.338H339.239V226.985Z" fill="#4E98D9"/>
<path d="M339.471 233.404H314.728V235.756H339.471V233.404Z" fill="#4E98D9"/>
<path d="M339.674 239.822H314.931V242.174H339.674V239.822Z" fill="#4E98D9"/>
<path d="M339.878 246.269H315.134V248.621H339.878V246.269Z" fill="#4E98D9"/>
<path d="M436.15 257.856H165.222V263.113H436.15V257.856Z" fill="#D86B47"/>
</svg>
